# https://github.com/mikedh/trimesh
v -0.75000000 0.01500000 0.00000000
v -0.70000000 0.01500000 0.00000000
v -0.70000000 0.96500000 0.00000000
v -0.75000000 0.96500000 0.00000000
v -0.70244717 0.01500000 0.01545085
v -0.70244717 0.96500000 0.01545085
v -0.70954915 0.01500000 0.02938926
v -0.70954915 0.96500000 0.02938926
v -0.72061074 0.01500000 0.04045085
v -0.72061074 0.96500000 0.04045085
v -0.73454915 0.01500000 0.04755283
v -0.73454915 0.96500000 0.04755283
v -0.75000000 0.01500000 0.05000000
v -0.75000000 0.96500000 0.05000000
v -0.76545085 0.01500000 0.04755283
v -0.76545085 0.96500000 0.04755283
v -0.77938926 0.01500000 0.04045085
v -0.77938926 0.96500000 0.04045085
v -0.79045085 0.01500000 0.02938926
v -0.79045085 0.96500000 0.02938926
v -0.79755283 0.01500000 0.01545085
v -0.79755283 0.96500000 0.01545085
v -0.80000000 0.01500000 0.00000000
v -0.80000000 0.96500000 0.00000000
v -0.79755283 0.01500000 -0.01545085
v -0.79755283 0.96500000 -0.01545085
v -0.79045085 0.01500000 -0.02938926
v -0.79045085 0.96500000 -0.02938926
v -0.77938926 0.01500000 -0.04045085
v -0.77938926 0.96500000 -0.04045085
v -0.76545085 0.01500000 -0.04755283
v -0.76545085 0.96500000 -0.04755283
v -0.75000000 0.01500000 -0.05000000
v -0.75000000 0.96500000 -0.05000000
v -0.73454915 0.01500000 -0.04755283
v -0.73454915 0.96500000 -0.04755283
v -0.72061074 0.01500000 -0.04045085
v -0.72061074 0.96500000 -0.04045085
v -0.70954915 0.01500000 -0.02938926
v -0.70954915 0.96500000 -0.02938926
v -0.70244717 0.01500000 -0.01545085
v -0.70244717 0.96500000 -0.01545085
v -0.70000000 1.01500000 0.00000000
v -0.70000000 0.96500000 0.00000000
v 0.70000000 0.96500000 0.00000000
v 0.70000000 1.01500000 0.00000000
v -0.70000000 0.96744717 0.01545085
v 0.70000000 0.96744717 0.01545085
v -0.70000000 0.97454915 0.02938926
v 0.70000000 0.97454915 0.02938926
v -0.70000000 0.98561074 0.04045085
v 0.70000000 0.98561074 0.04045085
v -0.70000000 0.99954915 0.04755283
v 0.70000000 0.99954915 0.04755283
v -0.70000000 1.01500000 0.05000000
v 0.70000000 1.01500000 0.05000000
v -0.70000000 1.03045085 0.04755283
v 0.70000000 1.03045085 0.04755283
v -0.70000000 1.04438926 0.04045085
v 0.70000000 1.04438926 0.04045085
v -0.70000000 1.05545085 0.02938926
v 0.70000000 1.05545085 0.02938926
v -0.70000000 1.06255283 0.01545085
v 0.70000000 1.06255283 0.01545085
v -0.70000000 1.06500000 0.00000000
v 0.70000000 1.06500000 0.00000000
v -0.70000000 1.06255283 -0.01545085
v 0.70000000 1.06255283 -0.01545085
v -0.70000000 1.05545085 -0.02938926
v 0.70000000 1.05545085 -0.02938926
v -0.70000000 1.04438926 -0.04045085
v 0.70000000 1.04438926 -0.04045085
v -0.70000000 1.03045085 -0.04755283
v 0.70000000 1.03045085 -0.04755283
v -0.70000000 1.01500000 -0.05000000
v 0.70000000 1.01500000 -0.05000000
v -0.70000000 0.99954915 -0.04755283
v 0.70000000 0.99954915 -0.04755283
v -0.70000000 0.98561074 -0.04045085
v 0.70000000 0.98561074 -0.04045085
v -0.70000000 0.97454915 -0.02938926
v 0.70000000 0.97454915 -0.02938926
v -0.70000000 0.96744717 -0.01545085
v 0.70000000 0.96744717 -0.01545085
v 0.75000000 0.01500000 0.00000000
v 0.80000000 0.01500000 0.00000000
v 0.80000000 0.96500000 0.00000000
v 0.75000000 0.96500000 0.00000000
v 0.79755283 0.01500000 0.01545085
v 0.79755283 0.96500000 0.01545085
v 0.79045085 0.01500000 0.02938926
v 0.79045085 0.96500000 0.02938926
v 0.77938926 0.01500000 0.04045085
v 0.77938926 0.96500000 0.04045085
v 0.76545085 0.01500000 0.04755283
v 0.76545085 0.96500000 0.04755283
v 0.75000000 0.01500000 0.05000000
v 0.75000000 0.96500000 0.05000000
v 0.73454915 0.01500000 0.04755283
v 0.73454915 0.96500000 0.04755283
v 0.72061074 0.01500000 0.04045085
v 0.72061074 0.96500000 0.04045085
v 0.70954915 0.01500000 0.02938926
v 0.70954915 0.96500000 0.02938926
v 0.70244717 0.01500000 0.01545085
v 0.70244717 0.96500000 0.01545085
v 0.70000000 0.01500000 0.00000000
v 0.70000000 0.96500000 0.00000000
v 0.70244717 0.01500000 -0.01545085
v 0.70244717 0.96500000 -0.01545085
v 0.70954915 0.01500000 -0.02938926
v 0.70954915 0.96500000 -0.02938926
v 0.72061074 0.01500000 -0.04045085
v 0.72061074 0.96500000 -0.04045085
v 0.73454915 0.01500000 -0.04755283
v 0.73454915 0.96500000 -0.04755283
v 0.75000000 0.01500000 -0.05000000
v 0.75000000 0.96500000 -0.05000000
v 0.76545085 0.01500000 -0.04755283
v 0.76545085 0.96500000 -0.04755283
v 0.77938926 0.01500000 -0.04045085
v 0.77938926 0.96500000 -0.04045085
v 0.79045085 0.01500000 -0.02938926
v 0.79045085 0.96500000 -0.02938926
v 0.79755283 0.01500000 -0.01545085
v 0.79755283 0.96500000 -0.01545085
v -0.75000000 0.96500000 0.00000000
v -0.70024076 0.96009914 0.00000000
v -0.69928003 0.96985366 0.00000000
v -0.74903926 0.97475452 0.00000000
v -0.70267615 0.96033901 0.01545085
v -0.70171542 0.97009352 0.01545085
v -0.70974393 0.96103512 0.02938926
v -0.70878320 0.97078964 0.02938926
v -0.72075225 0.96211935 0.04045085
v -0.71979152 0.97187386 0.04045085
v -0.73462355 0.96348555 0.04755283
v -0.73366281 0.97324007 0.04755283
v -0.75000000 0.96500000 0.05000000
v -0.74903926 0.97475452 0.05000000
v -0.76537645 0.96651445 0.04755283
v -0.76441571 0.97626896 0.04755283
v -0.77924775 0.96788065 0.04045085
v -0.77828701 0.97763517 0.04045085
v -0.79025607 0.96896488 0.02938926
v -0.78929533 0.97871939 0.02938926
v -0.79732385 0.96966099 0.01545085
v -0.79636311 0.97941551 0.01545085
v -0.79975924 0.96990086 0.00000000
v -0.79879850 0.97965537 0.00000000
v -0.79732385 0.96966099 -0.01545085
v -0.79636311 0.97941551 -0.01545085
v -0.79025607 0.96896488 -0.02938926
v -0.78929533 0.97871939 -0.02938926
v -0.77924775 0.96788065 -0.04045085
v -0.77828701 0.97763517 -0.04045085
v -0.76537645 0.96651445 -0.04755283
v -0.76441571 0.97626896 -0.04755283
v -0.75000000 0.96500000 -0.05000000
v -0.74903926 0.97475452 -0.05000000
v -0.73462355 0.96348555 -0.04755283
v -0.73366281 0.97324007 -0.04755283
v -0.72075225 0.96211935 -0.04045085
v -0.71979152 0.97187386 -0.04045085
v -0.70974393 0.96103512 -0.02938926
v -0.70878320 0.97078964 -0.02938926
v -0.70267615 0.96033901 -0.01545085
v -0.70171542 0.97009352 -0.01545085
v -0.74903926 0.97475452 0.00000000
v -0.70119225 0.96024028 0.00000000
v -0.69834696 0.96961994 0.00000000
v -0.74619398 0.98413417 0.00000000
v -0.70353405 0.96095066 0.01545085
v -0.70068876 0.97033031 0.01545085
v -0.71033021 0.96301225 0.02938926
v -0.70748493 0.97239191 0.02938926
v -0.72091549 0.96622326 0.04045085
v -0.71807021 0.97560292 0.04045085
v -0.73425372 0.97026937 0.04755283
v -0.73140844 0.97964903 0.04755283
v -0.74903926 0.97475452 0.05000000
v -0.74619398 0.98413417 0.05000000
v -0.76382481 0.97923966 0.04755283
v -0.76097952 0.98861932 0.04755283
v -0.77716303 0.98328577 0.04045085
v -0.77431775 0.99266542 0.04045085
v -0.78774831 0.98649678 0.02938926
v -0.78490303 0.99587643 0.02938926
v -0.79454448 0.98855837 0.01545085
v -0.79169919 0.99793803 0.01545085
v -0.79688628 0.98926875 0.00000000
v -0.79404099 0.99864841 0.00000000
v -0.79454448 0.98855837 -0.01545085
v -0.79169919 0.99793803 -0.01545085
v -0.78774831 0.98649678 -0.02938926
v -0.78490303 0.99587643 -0.02938926
v -0.77716303 0.98328577 -0.04045085
v -0.77431775 0.99266542 -0.04045085
v -0.76382481 0.97923966 -0.04755283
v -0.76097952 0.98861932 -0.04755283
v -0.74903926 0.97475452 -0.05000000
v -0.74619398 0.98413417 -0.05000000
v -0.73425372 0.97026937 -0.04755283
v -0.73140844 0.97964903 -0.04755283
v -0.72091549 0.96622326 -0.04045085
v -0.71807021 0.97560292 -0.04045085
v -0.71033021 0.96301225 -0.02938926
v -0.70748493 0.97239191 -0.02938926
v -0.70353405 0.96095066 -0.01545085
v -0.70068876 0.97033031 -0.01545085
v -0.74619398 0.98413417 0.00000000
v -0.70209791 0.96056433 0.00000000
v -0.69747742 0.96920867 0.00000000
v -0.74157348 0.99277851 0.00000000
v -0.70425613 0.96171792 0.01545085
v -0.69963563 0.97036226 0.01545085
v -0.71051951 0.96506577 0.02938926
v -0.70589902 0.97371011 0.02938926
v -0.72027496 0.97028017 0.04045085
v -0.71565446 0.97892451 0.04045085
v -0.73256754 0.97685069 0.04755283
v -0.72794705 0.98549503 0.04755283
v -0.74619398 0.98413417 0.05000000
v -0.74157348 0.99277851 0.05000000
v -0.75982041 0.99141765 0.04755283
v -0.75519991 1.00006199 0.04755283
v -0.77211299 0.99798817 0.04045085
v -0.76749250 1.00663251 0.04045085
v -0.78186844 1.00320257 0.02938926
v -0.77724795 1.01184691 0.02938926
v -0.78813182 1.00655042 0.01545085
v -0.78351133 1.01519476 0.01545085
v -0.79029004 1.00770401 0.00000000
v -0.78566954 1.01634835 0.00000000
v -0.78813182 1.00655042 -0.01545085
v -0.78351133 1.01519476 -0.01545085
v -0.78186844 1.00320257 -0.02938926
v -0.77724795 1.01184691 -0.02938926
v -0.77211299 0.99798817 -0.04045085
v -0.76749250 1.00663251 -0.04045085
v -0.75982041 0.99141765 -0.04755283
v -0.75519991 1.00006199 -0.04755283
v -0.74619398 0.98413417 -0.05000000
v -0.74157348 0.99277851 -0.05000000
v -0.73256754 0.97685069 -0.04755283
v -0.72794705 0.98549503 -0.04755283
v -0.72027496 0.97028017 -0.04045085
v -0.71565446 0.97892451 -0.04045085
v -0.71051951 0.96506577 -0.02938926
v -0.70589902 0.97371011 -0.02938926
v -0.70425613 0.96171792 -0.01545085
v -0.69963563 0.97036226 -0.01545085
v -0.74157348 0.99277851 0.00000000
v -0.70292296 0.96105885 0.00000000
v -0.69670482 0.96863567 0.00000000
v -0.73535534 1.00035534 0.00000000
v -0.70481465 0.96261132 0.01545085
v -0.69859651 0.97018815 0.01545085
v -0.71030455 0.96711676 0.02938926
v -0.70408641 0.97469359 0.02938926
v -0.71885527 0.97413416 0.04045085
v -0.71263713 0.98171099 0.04045085
v -0.72962981 0.98297660 0.04755283
v -0.72341167 0.99055342 0.04755283
v -0.74157348 0.99277851 0.05000000
v -0.73535534 1.00035534 0.05000000
v -0.75351715 1.00258043 0.04755283
v -0.74729901 1.01015725 0.04755283
v -0.76429169 1.01142286 0.04045085
v -0.75807355 1.01899969 0.04045085
v -0.77284241 1.01844026 0.02938926
v -0.76662427 1.02601709 0.02938926
v -0.77833231 1.02294570 0.01545085
v -0.77211417 1.03052253 0.01545085
v -0.78022400 1.02449818 0.00000000
v -0.77400586 1.03207500 0.00000000
v -0.77833231 1.02294570 -0.01545085
v -0.77211417 1.03052253 -0.01545085
v -0.77284241 1.01844026 -0.02938926
v -0.76662427 1.02601709 -0.02938926
v -0.76429169 1.01142286 -0.04045085
v -0.75807355 1.01899969 -0.04045085
v -0.75351715 1.00258043 -0.04755283
v -0.74729901 1.01015725 -0.04755283
v -0.74157348 0.99277851 -0.05000000
v -0.73535534 1.00035534 -0.05000000
v -0.72962981 0.98297660 -0.04755283
v -0.72341167 0.99055342 -0.04755283
v -0.71885527 0.97413416 -0.04045085
v -0.71263713 0.98171099 -0.04045085
v -0.71030455 0.96711676 -0.02938926
v -0.70408641 0.97469359 -0.02938926
v -0.70481465 0.96261132 -0.01545085
v -0.69859651 0.97018815 -0.01545085
v -0.73535534 1.00035534 0.00000000
v -0.70363567 0.96170482 0.00000000
v -0.69605885 0.96792296 0.00000000
v -0.72777851 1.00657348 0.00000000
v -0.70518815 0.96359651 0.01545085
v -0.69761132 0.96981465 0.01545085
v -0.70969359 0.96908641 0.02938926
v -0.70211676 0.97530455 0.02938926
v -0.71671099 0.97763713 0.04045085
v -0.70913416 0.98385527 0.04045085
v -0.72555342 0.98841167 0.04755283
v -0.71797660 0.99462981 0.04755283
v -0.73535534 1.00035534 0.05000000
v -0.72777851 1.00657348 0.05000000
v -0.74515725 1.01229901 0.04755283
v -0.73758043 1.01851715 0.04755283
v -0.75399969 1.02307355 0.04045085
v -0.74642286 1.02929169 0.04045085
v -0.76101709 1.03162427 0.02938926
v -0.75344026 1.03784241 0.02938926
v -0.76552253 1.03711417 0.01545085
v -0.75794570 1.04333231 0.01545085
v -0.76707500 1.03900586 0.00000000
v -0.75949818 1.04522400 0.00000000
v -0.76552253 1.03711417 -0.01545085
v -0.75794570 1.04333231 -0.01545085
v -0.76101709 1.03162427 -0.02938926
v -0.75344026 1.03784241 -0.02938926
v -0.75399969 1.02307355 -0.04045085
v -0.74642286 1.02929169 -0.04045085
v -0.74515725 1.01229901 -0.04755283
v -0.73758043 1.01851715 -0.04755283
v -0.73535534 1.00035534 -0.05000000
v -0.72777851 1.00657348 -0.05000000
v -0.72555342 0.98841167 -0.04755283
v -0.71797660 0.99462981 -0.04755283
v -0.71671099 0.97763713 -0.04045085
v -0.70913416 0.98385527 -0.04045085
v -0.70969359 0.96908641 -0.02938926
v -0.70211676 0.97530455 -0.02938926
v -0.70518815 0.96359651 -0.01545085
v -0.69761132 0.96981465 -0.01545085
v -0.72777851 1.00657348 0.00000000
v -0.70420867 0.96247742 0.00000000
v -0.69556433 0.96709791 0.00000000
v -0.71913417 1.01119398 0.00000000
v -0.70536226 0.96463563 0.01545085
v -0.69671792 0.96925613 0.01545085
v -0.70871011 0.97089902 0.02938926
v -0.70006577 0.97551951 0.02938926
v -0.71392451 0.98065446 0.04045085
v -0.70528017 0.98527496 0.04045085
v -0.72049503 0.99294705 0.04755283
v -0.71185069 0.99756754 0.04755283
v -0.72777851 1.00657348 0.05000000
v -0.71913417 1.01119398 0.05000000
v -0.73506199 1.02019991 0.04755283
v -0.72641765 1.02482041 0.04755283
v -0.74163251 1.03249250 0.04045085
v -0.73298817 1.03711299 0.04045085
v -0.74684691 1.04224795 0.02938926
v -0.73820257 1.04686844 0.02938926
v -0.75019476 1.04851133 0.01545085
v -0.74155042 1.05313182 0.01545085
v -0.75134835 1.05066954 0.00000000
v -0.74270401 1.05529004 0.00000000
v -0.75019476 1.04851133 -0.01545085
v -0.74155042 1.05313182 -0.01545085
v -0.74684691 1.04224795 -0.02938926
v -0.73820257 1.04686844 -0.02938926
v -0.74163251 1.03249250 -0.04045085
v -0.73298817 1.03711299 -0.04045085
v -0.73506199 1.02019991 -0.04755283
v -0.72641765 1.02482041 -0.04755283
v -0.72777851 1.00657348 -0.05000000
v -0.71913417 1.01119398 -0.05000000
v -0.72049503 0.99294705 -0.04755283
v -0.71185069 0.99756754 -0.04755283
v -0.71392451 0.98065446 -0.04045085
v -0.70528017 0.98527496 -0.04045085
v -0.70871011 0.97089902 -0.02938926
v -0.70006577 0.97551951 -0.02938926
v -0.70536226 0.96463563 -0.01545085
v -0.69671792 0.96925613 -0.01545085
v -0.71913417 1.01119398 0.00000000
v -0.70461994 0.96334696 0.00000000
v -0.69524028 0.96619225 0.00000000
v -0.70975452 1.01403926 0.00000000
v -0.70533031 0.96568876 0.01545085
v -0.69595066 0.96853405 0.01545085
v -0.70739191 0.97248493 0.02938926
v -0.69801225 0.97533021 0.02938926
v -0.71060292 0.98307021 0.04045085
v -0.70122326 0.98591549 0.04045085
v -0.71464903 0.99640844 0.04755283
v -0.70526937 0.99925372 0.04755283
v -0.71913417 1.01119398 0.05000000
v -0.70975452 1.01403926 0.05000000
v -0.72361932 1.02597952 0.04755283
v -0.71423966 1.02882481 0.04755283
v -0.72766542 1.03931775 0.04045085
v -0.71828577 1.04216303 0.04045085
v -0.73087643 1.04990303 0.02938926
v -0.72149678 1.05274831 0.02938926
v -0.73293803 1.05669919 0.01545085
v -0.72355837 1.05954448 0.01545085
v -0.73364841 1.05904099 0.00000000
v -0.72426875 1.06188628 0.00000000
v -0.73293803 1.05669919 -0.01545085
v -0.72355837 1.05954448 -0.01545085
v -0.73087643 1.04990303 -0.02938926
v -0.72149678 1.05274831 -0.02938926
v -0.72766542 1.03931775 -0.04045085
v -0.71828577 1.04216303 -0.04045085
v -0.72361932 1.02597952 -0.04755283
v -0.71423966 1.02882481 -0.04755283
v -0.71913417 1.01119398 -0.05000000
v -0.70975452 1.01403926 -0.05000000
v -0.71464903 0.99640844 -0.04755283
v -0.70526937 0.99925372 -0.04755283
v -0.71060292 0.98307021 -0.04045085
v -0.70122326 0.98591549 -0.04045085
v -0.70739191 0.97248493 -0.02938926
v -0.69801225 0.97533021 -0.02938926
v -0.70533031 0.96568876 -0.01545085
v -0.69595066 0.96853405 -0.01545085
v -0.70975452 1.01403926 0.00000000
v -0.70485366 0.96428003 0.00000000
v -0.69509914 0.96524076 0.00000000
v -0.70000000 1.01500000 0.00000000
v -0.70509352 0.96671542 0.01545085
v -0.69533901 0.96767615 0.01545085
v -0.70578964 0.97378320 0.02938926
v -0.69603512 0.97474393 0.02938926
v -0.70687386 0.98479152 0.04045085
v -0.69711935 0.98575225 0.04045085
v -0.70824007 0.99866281 0.04755283
v -0.69848555 0.99962355 0.04755283
v -0.70975452 1.01403926 0.05000000
v -0.70000000 1.01500000 0.05000000
v -0.71126896 1.02941571 0.04755283
v -0.70151445 1.03037645 0.04755283
v -0.71263517 1.04328701 0.04045085
v -0.70288065 1.04424775 0.04045085
v -0.71371939 1.05429533 0.02938926
v -0.70396488 1.05525607 0.02938926
v -0.71441551 1.06136311 0.01545085
v -0.70466099 1.06232385 0.01545085
v -0.71465537 1.06379850 0.00000000
v -0.70490086 1.06475924 0.00000000
v -0.71441551 1.06136311 -0.01545085
v -0.70466099 1.06232385 -0.01545085
v -0.71371939 1.05429533 -0.02938926
v -0.70396488 1.05525607 -0.02938926
v -0.71263517 1.04328701 -0.04045085
v -0.70288065 1.04424775 -0.04045085
v -0.71126896 1.02941571 -0.04755283
v -0.70151445 1.03037645 -0.04755283
v -0.70975452 1.01403926 -0.05000000
v -0.70000000 1.01500000 -0.05000000
v -0.70824007 0.99866281 -0.04755283
v -0.69848555 0.99962355 -0.04755283
v -0.70687386 0.98479152 -0.04045085
v -0.69711935 0.98575225 -0.04045085
v -0.70578964 0.97378320 -0.02938926
v -0.69603512 0.97474393 -0.02938926
v -0.70509352 0.96671542 -0.01545085
v -0.69533901 0.96767615 -0.01545085
v 0.70000000 1.01500000 0.00000000
v 0.69509914 0.96524076 0.00000000
v 0.70485366 0.96428003 0.00000000
v 0.70975452 1.01403926 0.00000000
v 0.69533901 0.96767615 0.01545085
v 0.70509352 0.96671542 0.01545085
v 0.69603512 0.97474393 0.02938926
v 0.70578964 0.97378320 0.02938926
v 0.69711935 0.98575225 0.04045085
v 0.70687386 0.98479152 0.04045085
v 0.69848555 0.99962355 0.04755283
v 0.70824007 0.99866281 0.04755283
v 0.70000000 1.01500000 0.05000000
v 0.70975452 1.01403926 0.05000000
v 0.70151445 1.03037645 0.04755283
v 0.71126896 1.02941571 0.04755283
v 0.70288065 1.04424775 0.04045085
v 0.71263517 1.04328701 0.04045085
v 0.70396488 1.05525607 0.02938926
v 0.71371939 1.05429533 0.02938926
v 0.70466099 1.06232385 0.01545085
v 0.71441551 1.06136311 0.01545085
v 0.70490086 1.06475924 0.00000000
v 0.71465537 1.06379850 0.00000000
v 0.70466099 1.06232385 -0.01545085
v 0.71441551 1.06136311 -0.01545085
v 0.70396488 1.05525607 -0.02938926
v 0.71371939 1.05429533 -0.02938926
v 0.70288065 1.04424775 -0.04045085
v 0.71263517 1.04328701 -0.04045085
v 0.70151445 1.03037645 -0.04755283
v 0.71126896 1.02941571 -0.04755283
v 0.70000000 1.01500000 -0.05000000
v 0.70975452 1.01403926 -0.05000000
v 0.69848555 0.99962355 -0.04755283
v 0.70824007 0.99866281 -0.04755283
v 0.69711935 0.98575225 -0.04045085
v 0.70687386 0.98479152 -0.04045085
v 0.69603512 0.97474393 -0.02938926
v 0.70578964 0.97378320 -0.02938926
v 0.69533901 0.96767615 -0.01545085
v 0.70509352 0.96671542 -0.01545085
v 0.70975452 1.01403926 0.00000000
v 0.69524028 0.96619225 0.00000000
v 0.70461994 0.96334696 0.00000000
v 0.71913417 1.01119398 0.00000000
v 0.69595066 0.96853405 0.01545085
v 0.70533031 0.96568876 0.01545085
v 0.69801225 0.97533021 0.02938926
v 0.70739191 0.97248493 0.02938926
v 0.70122326 0.98591549 0.04045085
v 0.71060292 0.98307021 0.04045085
v 0.70526937 0.99925372 0.04755283
v 0.71464903 0.99640844 0.04755283
v 0.70975452 1.01403926 0.05000000
v 0.71913417 1.01119398 0.05000000
v 0.71423966 1.02882481 0.04755283
v 0.72361932 1.02597952 0.04755283
v 0.71828577 1.04216303 0.04045085
v 0.72766542 1.03931775 0.04045085
v 0.72149678 1.05274831 0.02938926
v 0.73087643 1.04990303 0.02938926
v 0.72355837 1.05954448 0.01545085
v 0.73293803 1.05669919 0.01545085
v 0.72426875 1.06188628 0.00000000
v 0.73364841 1.05904099 0.00000000
v 0.72355837 1.05954448 -0.01545085
v 0.73293803 1.05669919 -0.01545085
v 0.72149678 1.05274831 -0.02938926
v 0.73087643 1.04990303 -0.02938926
v 0.71828577 1.04216303 -0.04045085
v 0.72766542 1.03931775 -0.04045085
v 0.71423966 1.02882481 -0.04755283
v 0.72361932 1.02597952 -0.04755283
v 0.70975452 1.01403926 -0.05000000
v 0.71913417 1.01119398 -0.05000000
v 0.70526937 0.99925372 -0.04755283
v 0.71464903 0.99640844 -0.04755283
v 0.70122326 0.98591549 -0.04045085
v 0.71060292 0.98307021 -0.04045085
v 0.69801225 0.97533021 -0.02938926
v 0.70739191 0.97248493 -0.02938926
v 0.69595066 0.96853405 -0.01545085
v 0.70533031 0.96568876 -0.01545085
v 0.71913417 1.01119398 0.00000000
v 0.69556433 0.96709791 0.00000000
v 0.70420867 0.96247742 0.00000000
v 0.72777851 1.00657348 0.00000000
v 0.69671792 0.96925613 0.01545085
v 0.70536226 0.96463563 0.01545085
v 0.70006577 0.97551951 0.02938926
v 0.70871011 0.97089902 0.02938926
v 0.70528017 0.98527496 0.04045085
v 0.71392451 0.98065446 0.04045085
v 0.71185069 0.99756754 0.04755283
v 0.72049503 0.99294705 0.04755283
v 0.71913417 1.01119398 0.05000000
v 0.72777851 1.00657348 0.05000000
v 0.72641765 1.02482041 0.04755283
v 0.73506199 1.02019991 0.04755283
v 0.73298817 1.03711299 0.04045085
v 0.74163251 1.03249250 0.04045085
v 0.73820257 1.04686844 0.02938926
v 0.74684691 1.04224795 0.02938926
v 0.74155042 1.05313182 0.01545085
v 0.75019476 1.04851133 0.01545085
v 0.74270401 1.05529004 0.00000000
v 0.75134835 1.05066954 0.00000000
v 0.74155042 1.05313182 -0.01545085
v 0.75019476 1.04851133 -0.01545085
v 0.73820257 1.04686844 -0.02938926
v 0.74684691 1.04224795 -0.02938926
v 0.73298817 1.03711299 -0.04045085
v 0.74163251 1.03249250 -0.04045085
v 0.72641765 1.02482041 -0.04755283
v 0.73506199 1.02019991 -0.04755283
v 0.71913417 1.01119398 -0.05000000
v 0.72777851 1.00657348 -0.05000000
v 0.71185069 0.99756754 -0.04755283
v 0.72049503 0.99294705 -0.04755283
v 0.70528017 0.98527496 -0.04045085
v 0.71392451 0.98065446 -0.04045085
v 0.70006577 0.97551951 -0.02938926
v 0.70871011 0.97089902 -0.02938926
v 0.69671792 0.96925613 -0.01545085
v 0.70536226 0.96463563 -0.01545085
v 0.72777851 1.00657348 0.00000000
v 0.69605885 0.96792296 0.00000000
v 0.70363567 0.96170482 0.00000000
v 0.73535534 1.00035534 0.00000000
v 0.69761132 0.96981465 0.01545085
v 0.70518815 0.96359651 0.01545085
v 0.70211676 0.97530455 0.02938926
v 0.70969359 0.96908641 0.02938926
v 0.70913416 0.98385527 0.04045085
v 0.71671099 0.97763713 0.04045085
v 0.71797660 0.99462981 0.04755283
v 0.72555342 0.98841167 0.04755283
v 0.72777851 1.00657348 0.05000000
v 0.73535534 1.00035534 0.05000000
v 0.73758043 1.01851715 0.04755283
v 0.74515725 1.01229901 0.04755283
v 0.74642286 1.02929169 0.04045085
v 0.75399969 1.02307355 0.04045085
v 0.75344026 1.03784241 0.02938926
v 0.76101709 1.03162427 0.02938926
v 0.75794570 1.04333231 0.01545085
v 0.76552253 1.03711417 0.01545085
v 0.75949818 1.04522400 0.00000000
v 0.76707500 1.03900586 0.00000000
v 0.75794570 1.04333231 -0.01545085
v 0.76552253 1.03711417 -0.01545085
v 0.75344026 1.03784241 -0.02938926
v 0.76101709 1.03162427 -0.02938926
v 0.74642286 1.02929169 -0.04045085
v 0.75399969 1.02307355 -0.04045085
v 0.73758043 1.01851715 -0.04755283
v 0.74515725 1.01229901 -0.04755283
v 0.72777851 1.00657348 -0.05000000
v 0.73535534 1.00035534 -0.05000000
v 0.71797660 0.99462981 -0.04755283
v 0.72555342 0.98841167 -0.04755283
v 0.70913416 0.98385527 -0.04045085
v 0.71671099 0.97763713 -0.04045085
v 0.70211676 0.97530455 -0.02938926
v 0.70969359 0.96908641 -0.02938926
v 0.69761132 0.96981465 -0.01545085
v 0.70518815 0.96359651 -0.01545085
v 0.73535534 1.00035534 0.00000000
v 0.69670482 0.96863567 0.00000000
v 0.70292296 0.96105885 0.00000000
v 0.74157348 0.99277851 0.00000000
v 0.69859651 0.97018815 0.01545085
v 0.70481465 0.96261132 0.01545085
v 0.70408641 0.97469359 0.02938926
v 0.71030455 0.96711676 0.02938926
v 0.71263713 0.98171099 0.04045085
v 0.71885527 0.97413416 0.04045085
v 0.72341167 0.99055342 0.04755283
v 0.72962981 0.98297660 0.04755283
v 0.73535534 1.00035534 0.05000000
v 0.74157348 0.99277851 0.05000000
v 0.74729901 1.01015725 0.04755283
v 0.75351715 1.00258043 0.04755283
v 0.75807355 1.01899969 0.04045085
v 0.76429169 1.01142286 0.04045085
v 0.76662427 1.02601709 0.02938926
v 0.77284241 1.01844026 0.02938926
v 0.77211417 1.03052253 0.01545085
v 0.77833231 1.02294570 0.01545085
v 0.77400586 1.03207500 0.00000000
v 0.78022400 1.02449818 0.00000000
v 0.77211417 1.03052253 -0.01545085
v 0.77833231 1.02294570 -0.01545085
v 0.76662427 1.02601709 -0.02938926
v 0.77284241 1.01844026 -0.02938926
v 0.75807355 1.01899969 -0.04045085
v 0.76429169 1.01142286 -0.04045085
v 0.74729901 1.01015725 -0.04755283
v 0.75351715 1.00258043 -0.04755283
v 0.73535534 1.00035534 -0.05000000
v 0.74157348 0.99277851 -0.05000000
v 0.72341167 0.99055342 -0.04755283
v 0.72962981 0.98297660 -0.04755283
v 0.71263713 0.98171099 -0.04045085
v 0.71885527 0.97413416 -0.04045085
v 0.70408641 0.97469359 -0.02938926
v 0.71030455 0.96711676 -0.02938926
v 0.69859651 0.97018815 -0.01545085
v 0.70481465 0.96261132 -0.01545085
v 0.74157348 0.99277851 0.00000000
v 0.69747742 0.96920867 0.00000000
v 0.70209791 0.96056433 0.00000000
v 0.74619398 0.98413417 0.00000000
v 0.69963563 0.97036226 0.01545085
v 0.70425613 0.96171792 0.01545085
v 0.70589902 0.97371011 0.02938926
v 0.71051951 0.96506577 0.02938926
v 0.71565446 0.97892451 0.04045085
v 0.72027496 0.97028017 0.04045085
v 0.72794705 0.98549503 0.04755283
v 0.73256754 0.97685069 0.04755283
v 0.74157348 0.99277851 0.05000000
v 0.74619398 0.98413417 0.05000000
v 0.75519991 1.00006199 0.04755283
v 0.75982041 0.99141765 0.04755283
v 0.76749250 1.00663251 0.04045085
v 0.77211299 0.99798817 0.04045085
v 0.77724795 1.01184691 0.02938926
v 0.78186844 1.00320257 0.02938926
v 0.78351133 1.01519476 0.01545085
v 0.78813182 1.00655042 0.01545085
v 0.78566954 1.01634835 0.00000000
v 0.79029004 1.00770401 0.00000000
v 0.78351133 1.01519476 -0.01545085
v 0.78813182 1.00655042 -0.01545085
v 0.77724795 1.01184691 -0.02938926
v 0.78186844 1.00320257 -0.02938926
v 0.76749250 1.00663251 -0.04045085
v 0.77211299 0.99798817 -0.04045085
v 0.75519991 1.00006199 -0.04755283
v 0.75982041 0.99141765 -0.04755283
v 0.74157348 0.99277851 -0.05000000
v 0.74619398 0.98413417 -0.05000000
v 0.72794705 0.98549503 -0.04755283
v 0.73256754 0.97685069 -0.04755283
v 0.71565446 0.97892451 -0.04045085
v 0.72027496 0.97028017 -0.04045085
v 0.70589902 0.97371011 -0.02938926
v 0.71051951 0.96506577 -0.02938926
v 0.69963563 0.97036226 -0.01545085
v 0.70425613 0.96171792 -0.01545085
v 0.74619398 0.98413417 0.00000000
v 0.69834696 0.96961994 0.00000000
v 0.70119225 0.96024028 0.00000000
v 0.74903926 0.97475452 0.00000000
v 0.70068876 0.97033031 0.01545085
v 0.70353405 0.96095066 0.01545085
v 0.70748493 0.97239191 0.02938926
v 0.71033021 0.96301225 0.02938926
v 0.71807021 0.97560292 0.04045085
v 0.72091549 0.96622326 0.04045085
v 0.73140844 0.97964903 0.04755283
v 0.73425372 0.97026937 0.04755283
v 0.74619398 0.98413417 0.05000000
v 0.74903926 0.97475452 0.05000000
v 0.76097952 0.98861932 0.04755283
v 0.76382481 0.97923966 0.04755283
v 0.77431775 0.99266542 0.04045085
v 0.77716303 0.98328577 0.04045085
v 0.78490303 0.99587643 0.02938926
v 0.78774831 0.98649678 0.02938926
v 0.79169919 0.99793803 0.01545085
v 0.79454448 0.98855837 0.01545085
v 0.79404099 0.99864841 0.00000000
v 0.79688628 0.98926875 0.00000000
v 0.79169919 0.99793803 -0.01545085
v 0.79454448 0.98855837 -0.01545085
v 0.78490303 0.99587643 -0.02938926
v 0.78774831 0.98649678 -0.02938926
v 0.77431775 0.99266542 -0.04045085
v 0.77716303 0.98328577 -0.04045085
v 0.76097952 0.98861932 -0.04755283
v 0.76382481 0.97923966 -0.04755283
v 0.74619398 0.98413417 -0.05000000
v 0.74903926 0.97475452 -0.05000000
v 0.73140844 0.97964903 -0.04755283
v 0.73425372 0.97026937 -0.04755283
v 0.71807021 0.97560292 -0.04045085
v 0.72091549 0.96622326 -0.04045085
v 0.70748493 0.97239191 -0.02938926
v 0.71033021 0.96301225 -0.02938926
v 0.70068876 0.97033031 -0.01545085
v 0.70353405 0.96095066 -0.01545085
v 0.74903926 0.97475452 0.00000000
v 0.69928003 0.96985366 0.00000000
v 0.70024076 0.96009914 0.00000000
v 0.75000000 0.96500000 0.00000000
v 0.70171542 0.97009352 0.01545085
v 0.70267615 0.96033901 0.01545085
v 0.70878320 0.97078964 0.02938926
v 0.70974393 0.96103512 0.02938926
v 0.71979152 0.97187386 0.04045085
v 0.72075225 0.96211935 0.04045085
v 0.73366281 0.97324007 0.04755283
v 0.73462355 0.96348555 0.04755283
v 0.74903926 0.97475452 0.05000000
v 0.75000000 0.96500000 0.05000000
v 0.76441571 0.97626896 0.04755283
v 0.76537645 0.96651445 0.04755283
v 0.77828701 0.97763517 0.04045085
v 0.77924775 0.96788065 0.04045085
v 0.78929533 0.97871939 0.02938926
v 0.79025607 0.96896488 0.02938926
v 0.79636311 0.97941551 0.01545085
v 0.79732385 0.96966099 0.01545085
v 0.79879850 0.97965537 0.00000000
v 0.79975924 0.96990086 0.00000000
v 0.79636311 0.97941551 -0.01545085
v 0.79732385 0.96966099 -0.01545085
v 0.78929533 0.97871939 -0.02938926
v 0.79025607 0.96896488 -0.02938926
v 0.77828701 0.97763517 -0.04045085
v 0.77924775 0.96788065 -0.04045085
v 0.76441571 0.97626896 -0.04755283
v 0.76537645 0.96651445 -0.04755283
v 0.74903926 0.97475452 -0.05000000
v 0.75000000 0.96500000 -0.05000000
v 0.73366281 0.97324007 -0.04755283
v 0.73462355 0.96348555 -0.04755283
v 0.71979152 0.97187386 -0.04045085
v 0.72075225 0.96211935 -0.04045085
v 0.70878320 0.97078964 -0.02938926
v 0.70974393 0.96103512 -0.02938926
v 0.70171542 0.97009352 -0.01545085
v 0.70267615 0.96033901 -0.01545085
v -0.85000000 0.00000000 -0.10000000
v -0.85000000 0.01500000 -0.10000000
v -0.85000000 0.00000000 0.10000000
v -0.85000000 0.01500000 0.10000000
v -0.65000000 0.00000000 -0.10000000
v -0.65000000 0.01500000 -0.10000000
v -0.65000000 0.00000000 0.10000000
v -0.65000000 0.01500000 0.10000000
v -0.68000000 0.01500000 0.07000000
v -0.66800000 0.01500000 0.07000000
v -0.66800000 0.04000000 0.07000000
v -0.68000000 0.04000000 0.07000000
v -0.66960770 0.01500000 0.07600000
v -0.66960770 0.04000000 0.07600000
v -0.67400000 0.01500000 0.08039230
v -0.67400000 0.04000000 0.08039230
v -0.68000000 0.01500000 0.08200000
v -0.68000000 0.04000000 0.08200000
v -0.68600000 0.01500000 0.08039230
v -0.68600000 0.04000000 0.08039230
v -0.69039230 0.01500000 0.07600000
v -0.69039230 0.04000000 0.07600000
v -0.69200000 0.01500000 0.07000000
v -0.69200000 0.04000000 0.07000000
v -0.69039230 0.01500000 0.06400000
v -0.69039230 0.04000000 0.06400000
v -0.68600000 0.01500000 0.05960770
v -0.68600000 0.04000000 0.05960770
v -0.68000000 0.01500000 0.05800000
v -0.68000000 0.04000000 0.05800000
v -0.67400000 0.01500000 0.05960770
v -0.67400000 0.04000000 0.05960770
v -0.66960770 0.01500000 0.06400000
v -0.66960770 0.04000000 0.06400000
v -0.82000000 0.01500000 0.07000000
v -0.80800000 0.01500000 0.07000000
v -0.80800000 0.04000000 0.07000000
v -0.82000000 0.04000000 0.07000000
v -0.80960770 0.01500000 0.07600000
v -0.80960770 0.04000000 0.07600000
v -0.81400000 0.01500000 0.08039230
v -0.81400000 0.04000000 0.08039230
v -0.82000000 0.01500000 0.08200000
v -0.82000000 0.04000000 0.08200000
v -0.82600000 0.01500000 0.08039230
v -0.82600000 0.04000000 0.08039230
v -0.83039230 0.01500000 0.07600000
v -0.83039230 0.04000000 0.07600000
v -0.83200000 0.01500000 0.07000000
v -0.83200000 0.04000000 0.07000000
v -0.83039230 0.01500000 0.06400000
v -0.83039230 0.04000000 0.06400000
v -0.82600000 0.01500000 0.05960770
v -0.82600000 0.04000000 0.05960770
v -0.82000000 0.01500000 0.05800000
v -0.82000000 0.04000000 0.05800000
v -0.81400000 0.01500000 0.05960770
v -0.81400000 0.04000000 0.05960770
v -0.80960770 0.01500000 0.06400000
v -0.80960770 0.04000000 0.06400000
v -0.68000000 0.01500000 -0.07000000
v -0.66800000 0.01500000 -0.07000000
v -0.66800000 0.04000000 -0.07000000
v -0.68000000 0.04000000 -0.07000000
v -0.66960770 0.01500000 -0.06400000
v -0.66960770 0.04000000 -0.06400000
v -0.67400000 0.01500000 -0.05960770
v -0.67400000 0.04000000 -0.05960770
v -0.68000000 0.01500000 -0.05800000
v -0.68000000 0.04000000 -0.05800000
v -0.68600000 0.01500000 -0.05960770
v -0.68600000 0.04000000 -0.05960770
v -0.69039230 0.01500000 -0.06400000
v -0.69039230 0.04000000 -0.06400000
v -0.69200000 0.01500000 -0.07000000
v -0.69200000 0.04000000 -0.07000000
v -0.69039230 0.01500000 -0.07600000
v -0.69039230 0.04000000 -0.07600000
v -0.68600000 0.01500000 -0.08039230
v -0.68600000 0.04000000 -0.08039230
v -0.68000000 0.01500000 -0.08200000
v -0.68000000 0.04000000 -0.08200000
v -0.67400000 0.01500000 -0.08039230
v -0.67400000 0.04000000 -0.08039230
v -0.66960770 0.01500000 -0.07600000
v -0.66960770 0.04000000 -0.07600000
v -0.82000000 0.01500000 -0.07000000
v -0.80800000 0.01500000 -0.07000000
v -0.80800000 0.04000000 -0.07000000
v -0.82000000 0.04000000 -0.07000000
v -0.80960770 0.01500000 -0.06400000
v -0.80960770 0.04000000 -0.06400000
v -0.81400000 0.01500000 -0.05960770
v -0.81400000 0.04000000 -0.05960770
v -0.82000000 0.01500000 -0.05800000
v -0.82000000 0.04000000 -0.05800000
v -0.82600000 0.01500000 -0.05960770
v -0.82600000 0.04000000 -0.05960770
v -0.83039230 0.01500000 -0.06400000
v -0.83039230 0.04000000 -0.06400000
v -0.83200000 0.01500000 -0.07000000
v -0.83200000 0.04000000 -0.07000000
v -0.83039230 0.01500000 -0.07600000
v -0.83039230 0.04000000 -0.07600000
v -0.82600000 0.01500000 -0.08039230
v -0.82600000 0.04000000 -0.08039230
v -0.82000000 0.01500000 -0.08200000
v -0.82000000 0.04000000 -0.08200000
v -0.81400000 0.01500000 -0.08039230
v -0.81400000 0.04000000 -0.08039230
v -0.80960770 0.01500000 -0.07600000
v -0.80960770 0.04000000 -0.07600000
v 0.65000000 0.00000000 -0.10000000
v 0.65000000 0.01500000 -0.10000000
v 0.65000000 0.00000000 0.10000000
v 0.65000000 0.01500000 0.10000000
v 0.85000000 0.00000000 -0.10000000
v 0.85000000 0.01500000 -0.10000000
v 0.85000000 0.00000000 0.10000000
v 0.85000000 0.01500000 0.10000000
v 0.82000000 0.01500000 0.07000000
v 0.83200000 0.01500000 0.07000000
v 0.83200000 0.04000000 0.07000000
v 0.82000000 0.04000000 0.07000000
v 0.83039230 0.01500000 0.07600000
v 0.83039230 0.04000000 0.07600000
v 0.82600000 0.01500000 0.08039230
v 0.82600000 0.04000000 0.08039230
v 0.82000000 0.01500000 0.08200000
v 0.82000000 0.04000000 0.08200000
v 0.81400000 0.01500000 0.08039230
v 0.81400000 0.04000000 0.08039230
v 0.80960770 0.01500000 0.07600000
v 0.80960770 0.04000000 0.07600000
v 0.80800000 0.01500000 0.07000000
v 0.80800000 0.04000000 0.07000000
v 0.80960770 0.01500000 0.06400000
v 0.80960770 0.04000000 0.06400000
v 0.81400000 0.01500000 0.05960770
v 0.81400000 0.04000000 0.05960770
v 0.82000000 0.01500000 0.05800000
v 0.82000000 0.04000000 0.05800000
v 0.82600000 0.01500000 0.05960770
v 0.82600000 0.04000000 0.05960770
v 0.83039230 0.01500000 0.06400000
v 0.83039230 0.04000000 0.06400000
v 0.68000000 0.01500000 0.07000000
v 0.69200000 0.01500000 0.07000000
v 0.69200000 0.04000000 0.07000000
v 0.68000000 0.04000000 0.07000000
v 0.69039230 0.01500000 0.07600000
v 0.69039230 0.04000000 0.07600000
v 0.68600000 0.01500000 0.08039230
v 0.68600000 0.04000000 0.08039230
v 0.68000000 0.01500000 0.08200000
v 0.68000000 0.04000000 0.08200000
v 0.67400000 0.01500000 0.08039230
v 0.67400000 0.04000000 0.08039230
v 0.66960770 0.01500000 0.07600000
v 0.66960770 0.04000000 0.07600000
v 0.66800000 0.01500000 0.07000000
v 0.66800000 0.04000000 0.07000000
v 0.66960770 0.01500000 0.06400000
v 0.66960770 0.04000000 0.06400000
v 0.67400000 0.01500000 0.05960770
v 0.67400000 0.04000000 0.05960770
v 0.68000000 0.01500000 0.05800000
v 0.68000000 0.04000000 0.05800000
v 0.68600000 0.01500000 0.05960770
v 0.68600000 0.04000000 0.05960770
v 0.69039230 0.01500000 0.06400000
v 0.69039230 0.04000000 0.06400000
v 0.82000000 0.01500000 -0.07000000
v 0.83200000 0.01500000 -0.07000000
v 0.83200000 0.04000000 -0.07000000
v 0.82000000 0.04000000 -0.07000000
v 0.83039230 0.01500000 -0.06400000
v 0.83039230 0.04000000 -0.06400000
v 0.82600000 0.01500000 -0.05960770
v 0.82600000 0.04000000 -0.05960770
v 0.82000000 0.01500000 -0.05800000
v 0.82000000 0.04000000 -0.05800000
v 0.81400000 0.01500000 -0.05960770
v 0.81400000 0.04000000 -0.05960770
v 0.80960770 0.01500000 -0.06400000
v 0.80960770 0.04000000 -0.06400000
v 0.80800000 0.01500000 -0.07000000
v 0.80800000 0.04000000 -0.07000000
v 0.80960770 0.01500000 -0.07600000
v 0.80960770 0.04000000 -0.07600000
v 0.81400000 0.01500000 -0.08039230
v 0.81400000 0.04000000 -0.08039230
v 0.82000000 0.01500000 -0.08200000
v 0.82000000 0.04000000 -0.08200000
v 0.82600000 0.01500000 -0.08039230
v 0.82600000 0.04000000 -0.08039230
v 0.83039230 0.01500000 -0.07600000
v 0.83039230 0.04000000 -0.07600000
v 0.68000000 0.01500000 -0.07000000
v 0.69200000 0.01500000 -0.07000000
v 0.69200000 0.04000000 -0.07000000
v 0.68000000 0.04000000 -0.07000000
v 0.69039230 0.01500000 -0.06400000
v 0.69039230 0.04000000 -0.06400000
v 0.68600000 0.01500000 -0.05960770
v 0.68600000 0.04000000 -0.05960770
v 0.68000000 0.01500000 -0.05800000
v 0.68000000 0.04000000 -0.05800000
v 0.67400000 0.01500000 -0.05960770
v 0.67400000 0.04000000 -0.05960770
v 0.66960770 0.01500000 -0.06400000
v 0.66960770 0.04000000 -0.06400000
v 0.66800000 0.01500000 -0.07000000
v 0.66800000 0.04000000 -0.07000000
v 0.66960770 0.01500000 -0.07600000
v 0.66960770 0.04000000 -0.07600000
v 0.67400000 0.01500000 -0.08039230
v 0.67400000 0.04000000 -0.08039230
v 0.68000000 0.01500000 -0.08200000
v 0.68000000 0.04000000 -0.08200000
v 0.68600000 0.01500000 -0.08039230
v 0.68600000 0.04000000 -0.08039230
v 0.69039230 0.01500000 -0.07600000
v 0.69039230 0.04000000 -0.07600000
f 2 1 5
f 2 5 3
f 3 5 6
f 3 6 4
f 5 1 7
f 5 7 6
f 6 7 8
f 6 8 4
f 7 1 9
f 7 9 8
f 8 9 10
f 8 10 4
f 9 1 11
f 9 11 10
f 10 11 12
f 10 12 4
f 11 1 13
f 11 13 12
f 12 13 14
f 12 14 4
f 13 1 15
f 13 15 14
f 14 15 16
f 14 16 4
f 15 1 17
f 15 17 16
f 16 17 18
f 16 18 4
f 17 1 19
f 17 19 18
f 18 19 20
f 18 20 4
f 19 1 21
f 19 21 20
f 20 21 22
f 20 22 4
f 21 1 23
f 21 23 22
f 22 23 24
f 22 24 4
f 23 1 25
f 23 25 24
f 24 25 26
f 24 26 4
f 25 1 27
f 25 27 26
f 26 27 28
f 26 28 4
f 27 1 29
f 27 29 28
f 28 29 30
f 28 30 4
f 29 1 31
f 29 31 30
f 30 31 32
f 30 32 4
f 31 1 33
f 31 33 32
f 32 33 34
f 32 34 4
f 33 1 35
f 33 35 34
f 34 35 36
f 34 36 4
f 35 1 37
f 35 37 36
f 36 37 38
f 36 38 4
f 37 1 39
f 37 39 38
f 38 39 40
f 38 40 4
f 39 1 41
f 39 41 40
f 40 41 42
f 40 42 4
f 41 1 2
f 41 2 42
f 42 2 3
f 42 3 4
f 44 43 47
f 44 47 45
f 45 47 48
f 45 48 46
f 47 43 49
f 47 49 48
f 48 49 50
f 48 50 46
f 49 43 51
f 49 51 50
f 50 51 52
f 50 52 46
f 51 43 53
f 51 53 52
f 52 53 54
f 52 54 46
f 53 43 55
f 53 55 54
f 54 55 56
f 54 56 46
f 55 43 57
f 55 57 56
f 56 57 58
f 56 58 46
f 57 43 59
f 57 59 58
f 58 59 60
f 58 60 46
f 59 43 61
f 59 61 60
f 60 61 62
f 60 62 46
f 61 43 63
f 61 63 62
f 62 63 64
f 62 64 46
f 63 43 65
f 63 65 64
f 64 65 66
f 64 66 46
f 65 43 67
f 65 67 66
f 66 67 68
f 66 68 46
f 67 43 69
f 67 69 68
f 68 69 70
f 68 70 46
f 69 43 71
f 69 71 70
f 70 71 72
f 70 72 46
f 71 43 73
f 71 73 72
f 72 73 74
f 72 74 46
f 73 43 75
f 73 75 74
f 74 75 76
f 74 76 46
f 75 43 77
f 75 77 76
f 76 77 78
f 76 78 46
f 77 43 79
f 77 79 78
f 78 79 80
f 78 80 46
f 79 43 81
f 79 81 80
f 80 81 82
f 80 82 46
f 81 43 83
f 81 83 82
f 82 83 84
f 82 84 46
f 83 43 44
f 83 44 84
f 84 44 45
f 84 45 46
f 86 85 89
f 86 89 87
f 87 89 90
f 87 90 88
f 89 85 91
f 89 91 90
f 90 91 92
f 90 92 88
f 91 85 93
f 91 93 92
f 92 93 94
f 92 94 88
f 93 85 95
f 93 95 94
f 94 95 96
f 94 96 88
f 95 85 97
f 95 97 96
f 96 97 98
f 96 98 88
f 97 85 99
f 97 99 98
f 98 99 100
f 98 100 88
f 99 85 101
f 99 101 100
f 100 101 102
f 100 102 88
f 101 85 103
f 101 103 102
f 102 103 104
f 102 104 88
f 103 85 105
f 103 105 104
f 104 105 106
f 104 106 88
f 105 85 107
f 105 107 106
f 106 107 108
f 106 108 88
f 107 85 109
f 107 109 108
f 108 109 110
f 108 110 88
f 109 85 111
f 109 111 110
f 110 111 112
f 110 112 88
f 111 85 113
f 111 113 112
f 112 113 114
f 112 114 88
f 113 85 115
f 113 115 114
f 114 115 116
f 114 116 88
f 115 85 117
f 115 117 116
f 116 117 118
f 116 118 88
f 117 85 119
f 117 119 118
f 118 119 120
f 118 120 88
f 119 85 121
f 119 121 120
f 120 121 122
f 120 122 88
f 121 85 123
f 121 123 122
f 122 123 124
f 122 124 88
f 123 85 125
f 123 125 124
f 124 125 126
f 124 126 88
f 125 85 86
f 125 86 126
f 126 86 87
f 126 87 88
f 128 127 131
f 128 131 129
f 129 131 132
f 129 132 130
f 131 127 133
f 131 133 132
f 132 133 134
f 132 134 130
f 133 127 135
f 133 135 134
f 134 135 136
f 134 136 130
f 135 127 137
f 135 137 136
f 136 137 138
f 136 138 130
f 137 127 139
f 137 139 138
f 138 139 140
f 138 140 130
f 139 127 141
f 139 141 140
f 140 141 142
f 140 142 130
f 141 127 143
f 141 143 142
f 142 143 144
f 142 144 130
f 143 127 145
f 143 145 144
f 144 145 146
f 144 146 130
f 145 127 147
f 145 147 146
f 146 147 148
f 146 148 130
f 147 127 149
f 147 149 148
f 148 149 150
f 148 150 130
f 149 127 151
f 149 151 150
f 150 151 152
f 150 152 130
f 151 127 153
f 151 153 152
f 152 153 154
f 152 154 130
f 153 127 155
f 153 155 154
f 154 155 156
f 154 156 130
f 155 127 157
f 155 157 156
f 156 157 158
f 156 158 130
f 157 127 159
f 157 159 158
f 158 159 160
f 158 160 130
f 159 127 161
f 159 161 160
f 160 161 162
f 160 162 130
f 161 127 163
f 161 163 162
f 162 163 164
f 162 164 130
f 163 127 165
f 163 165 164
f 164 165 166
f 164 166 130
f 165 127 167
f 165 167 166
f 166 167 168
f 166 168 130
f 167 127 128
f 167 128 168
f 168 128 129
f 168 129 130
f 170 169 173
f 170 173 171
f 171 173 174
f 171 174 172
f 173 169 175
f 173 175 174
f 174 175 176
f 174 176 172
f 175 169 177
f 175 177 176
f 176 177 178
f 176 178 172
f 177 169 179
f 177 179 178
f 178 179 180
f 178 180 172
f 179 169 181
f 179 181 180
f 180 181 182
f 180 182 172
f 181 169 183
f 181 183 182
f 182 183 184
f 182 184 172
f 183 169 185
f 183 185 184
f 184 185 186
f 184 186 172
f 185 169 187
f 185 187 186
f 186 187 188
f 186 188 172
f 187 169 189
f 187 189 188
f 188 189 190
f 188 190 172
f 189 169 191
f 189 191 190
f 190 191 192
f 190 192 172
f 191 169 193
f 191 193 192
f 192 193 194
f 192 194 172
f 193 169 195
f 193 195 194
f 194 195 196
f 194 196 172
f 195 169 197
f 195 197 196
f 196 197 198
f 196 198 172
f 197 169 199
f 197 199 198
f 198 199 200
f 198 200 172
f 199 169 201
f 199 201 200
f 200 201 202
f 200 202 172
f 201 169 203
f 201 203 202
f 202 203 204
f 202 204 172
f 203 169 205
f 203 205 204
f 204 205 206
f 204 206 172
f 205 169 207
f 205 207 206
f 206 207 208
f 206 208 172
f 207 169 209
f 207 209 208
f 208 209 210
f 208 210 172
f 209 169 170
f 209 170 210
f 210 170 171
f 210 171 172
f 212 211 215
f 212 215 213
f 213 215 216
f 213 216 214
f 215 211 217
f 215 217 216
f 216 217 218
f 216 218 214
f 217 211 219
f 217 219 218
f 218 219 220
f 218 220 214
f 219 211 221
f 219 221 220
f 220 221 222
f 220 222 214
f 221 211 223
f 221 223 222
f 222 223 224
f 222 224 214
f 223 211 225
f 223 225 224
f 224 225 226
f 224 226 214
f 225 211 227
f 225 227 226
f 226 227 228
f 226 228 214
f 227 211 229
f 227 229 228
f 228 229 230
f 228 230 214
f 229 211 231
f 229 231 230
f 230 231 232
f 230 232 214
f 231 211 233
f 231 233 232
f 232 233 234
f 232 234 214
f 233 211 235
f 233 235 234
f 234 235 236
f 234 236 214
f 235 211 237
f 235 237 236
f 236 237 238
f 236 238 214
f 237 211 239
f 237 239 238
f 238 239 240
f 238 240 214
f 239 211 241
f 239 241 240
f 240 241 242
f 240 242 214
f 241 211 243
f 241 243 242
f 242 243 244
f 242 244 214
f 243 211 245
f 243 245 244
f 244 245 246
f 244 246 214
f 245 211 247
f 245 247 246
f 246 247 248
f 246 248 214
f 247 211 249
f 247 249 248
f 248 249 250
f 248 250 214
f 249 211 251
f 249 251 250
f 250 251 252
f 250 252 214
f 251 211 212
f 251 212 252
f 252 212 213
f 252 213 214
f 254 253 257
f 254 257 255
f 255 257 258
f 255 258 256
f 257 253 259
f 257 259 258
f 258 259 260
f 258 260 256
f 259 253 261
f 259 261 260
f 260 261 262
f 260 262 256
f 261 253 263
f 261 263 262
f 262 263 264
f 262 264 256
f 263 253 265
f 263 265 264
f 264 265 266
f 264 266 256
f 265 253 267
f 265 267 266
f 266 267 268
f 266 268 256
f 267 253 269
f 267 269 268
f 268 269 270
f 268 270 256
f 269 253 271
f 269 271 270
f 270 271 272
f 270 272 256
f 271 253 273
f 271 273 272
f 272 273 274
f 272 274 256
f 273 253 275
f 273 275 274
f 274 275 276
f 274 276 256
f 275 253 277
f 275 277 276
f 276 277 278
f 276 278 256
f 277 253 279
f 277 279 278
f 278 279 280
f 278 280 256
f 279 253 281
f 279 281 280
f 280 281 282
f 280 282 256
f 281 253 283
f 281 283 282
f 282 283 284
f 282 284 256
f 283 253 285
f 283 285 284
f 284 285 286
f 284 286 256
f 285 253 287
f 285 287 286
f 286 287 288
f 286 288 256
f 287 253 289
f 287 289 288
f 288 289 290
f 288 290 256
f 289 253 291
f 289 291 290
f 290 291 292
f 290 292 256
f 291 253 293
f 291 293 292
f 292 293 294
f 292 294 256
f 293 253 254
f 293 254 294
f 294 254 255
f 294 255 256
f 296 295 299
f 296 299 297
f 297 299 300
f 297 300 298
f 299 295 301
f 299 301 300
f 300 301 302
f 300 302 298
f 301 295 303
f 301 303 302
f 302 303 304
f 302 304 298
f 303 295 305
f 303 305 304
f 304 305 306
f 304 306 298
f 305 295 307
f 305 307 306
f 306 307 308
f 306 308 298
f 307 295 309
f 307 309 308
f 308 309 310
f 308 310 298
f 309 295 311
f 309 311 310
f 310 311 312
f 310 312 298
f 311 295 313
f 311 313 312
f 312 313 314
f 312 314 298
f 313 295 315
f 313 315 314
f 314 315 316
f 314 316 298
f 315 295 317
f 315 317 316
f 316 317 318
f 316 318 298
f 317 295 319
f 317 319 318
f 318 319 320
f 318 320 298
f 319 295 321
f 319 321 320
f 320 321 322
f 320 322 298
f 321 295 323
f 321 323 322
f 322 323 324
f 322 324 298
f 323 295 325
f 323 325 324
f 324 325 326
f 324 326 298
f 325 295 327
f 325 327 326
f 326 327 328
f 326 328 298
f 327 295 329
f 327 329 328
f 328 329 330
f 328 330 298
f 329 295 331
f 329 331 330
f 330 331 332
f 330 332 298
f 331 295 333
f 331 333 332
f 332 333 334
f 332 334 298
f 333 295 335
f 333 335 334
f 334 335 336
f 334 336 298
f 335 295 296
f 335 296 336
f 336 296 297
f 336 297 298
f 338 337 341
f 338 341 339
f 339 341 342
f 339 342 340
f 341 337 343
f 341 343 342
f 342 343 344
f 342 344 340
f 343 337 345
f 343 345 344
f 344 345 346
f 344 346 340
f 345 337 347
f 345 347 346
f 346 347 348
f 346 348 340
f 347 337 349
f 347 349 348
f 348 349 350
f 348 350 340
f 349 337 351
f 349 351 350
f 350 351 352
f 350 352 340
f 351 337 353
f 351 353 352
f 352 353 354
f 352 354 340
f 353 337 355
f 353 355 354
f 354 355 356
f 354 356 340
f 355 337 357
f 355 357 356
f 356 357 358
f 356 358 340
f 357 337 359
f 357 359 358
f 358 359 360
f 358 360 340
f 359 337 361
f 359 361 360
f 360 361 362
f 360 362 340
f 361 337 363
f 361 363 362
f 362 363 364
f 362 364 340
f 363 337 365
f 363 365 364
f 364 365 366
f 364 366 340
f 365 337 367
f 365 367 366
f 366 367 368
f 366 368 340
f 367 337 369
f 367 369 368
f 368 369 370
f 368 370 340
f 369 337 371
f 369 371 370
f 370 371 372
f 370 372 340
f 371 337 373
f 371 373 372
f 372 373 374
f 372 374 340
f 373 337 375
f 373 375 374
f 374 375 376
f 374 376 340
f 375 337 377
f 375 377 376
f 376 377 378
f 376 378 340
f 377 337 338
f 377 338 378
f 378 338 339
f 378 339 340
f 380 379 383
f 380 383 381
f 381 383 384
f 381 384 382
f 383 379 385
f 383 385 384
f 384 385 386
f 384 386 382
f 385 379 387
f 385 387 386
f 386 387 388
f 386 388 382
f 387 379 389
f 387 389 388
f 388 389 390
f 388 390 382
f 389 379 391
f 389 391 390
f 390 391 392
f 390 392 382
f 391 379 393
f 391 393 392
f 392 393 394
f 392 394 382
f 393 379 395
f 393 395 394
f 394 395 396
f 394 396 382
f 395 379 397
f 395 397 396
f 396 397 398
f 396 398 382
f 397 379 399
f 397 399 398
f 398 399 400
f 398 400 382
f 399 379 401
f 399 401 400
f 400 401 402
f 400 402 382
f 401 379 403
f 401 403 402
f 402 403 404
f 402 404 382
f 403 379 405
f 403 405 404
f 404 405 406
f 404 406 382
f 405 379 407
f 405 407 406
f 406 407 408
f 406 408 382
f 407 379 409
f 407 409 408
f 408 409 410
f 408 410 382
f 409 379 411
f 409 411 410
f 410 411 412
f 410 412 382
f 411 379 413
f 411 413 412
f 412 413 414
f 412 414 382
f 413 379 415
f 413 415 414
f 414 415 416
f 414 416 382
f 415 379 417
f 415 417 416
f 416 417 418
f 416 418 382
f 417 379 419
f 417 419 418
f 418 419 420
f 418 420 382
f 419 379 380
f 419 380 420
f 420 380 381
f 420 381 382
f 422 421 425
f 422 425 423
f 423 425 426
f 423 426 424
f 425 421 427
f 425 427 426
f 426 427 428
f 426 428 424
f 427 421 429
f 427 429 428
f 428 429 430
f 428 430 424
f 429 421 431
f 429 431 430
f 430 431 432
f 430 432 424
f 431 421 433
f 431 433 432
f 432 433 434
f 432 434 424
f 433 421 435
f 433 435 434
f 434 435 436
f 434 436 424
f 435 421 437
f 435 437 436
f 436 437 438
f 436 438 424
f 437 421 439
f 437 439 438
f 438 439 440
f 438 440 424
f 439 421 441
f 439 441 440
f 440 441 442
f 440 442 424
f 441 421 443
f 441 443 442
f 442 443 444
f 442 444 424
f 443 421 445
f 443 445 444
f 444 445 446
f 444 446 424
f 445 421 447
f 445 447 446
f 446 447 448
f 446 448 424
f 447 421 449
f 447 449 448
f 448 449 450
f 448 450 424
f 449 421 451
f 449 451 450
f 450 451 452
f 450 452 424
f 451 421 453
f 451 453 452
f 452 453 454
f 452 454 424
f 453 421 455
f 453 455 454
f 454 455 456
f 454 456 424
f 455 421 457
f 455 457 456
f 456 457 458
f 456 458 424
f 457 421 459
f 457 459 458
f 458 459 460
f 458 460 424
f 459 421 461
f 459 461 460
f 460 461 462
f 460 462 424
f 461 421 422
f 461 422 462
f 462 422 423
f 462 423 424
f 464 463 467
f 464 467 465
f 465 467 468
f 465 468 466
f 467 463 469
f 467 469 468
f 468 469 470
f 468 470 466
f 469 463 471
f 469 471 470
f 470 471 472
f 470 472 466
f 471 463 473
f 471 473 472
f 472 473 474
f 472 474 466
f 473 463 475
f 473 475 474
f 474 475 476
f 474 476 466
f 475 463 477
f 475 477 476
f 476 477 478
f 476 478 466
f 477 463 479
f 477 479 478
f 478 479 480
f 478 480 466
f 479 463 481
f 479 481 480
f 480 481 482
f 480 482 466
f 481 463 483
f 481 483 482
f 482 483 484
f 482 484 466
f 483 463 485
f 483 485 484
f 484 485 486
f 484 486 466
f 485 463 487
f 485 487 486
f 486 487 488
f 486 488 466
f 487 463 489
f 487 489 488
f 488 489 490
f 488 490 466
f 489 463 491
f 489 491 490
f 490 491 492
f 490 492 466
f 491 463 493
f 491 493 492
f 492 493 494
f 492 494 466
f 493 463 495
f 493 495 494
f 494 495 496
f 494 496 466
f 495 463 497
f 495 497 496
f 496 497 498
f 496 498 466
f 497 463 499
f 497 499 498
f 498 499 500
f 498 500 466
f 499 463 501
f 499 501 500
f 500 501 502
f 500 502 466
f 501 463 503
f 501 503 502
f 502 503 504
f 502 504 466
f 503 463 464
f 503 464 504
f 504 464 465
f 504 465 466
f 506 505 509
f 506 509 507
f 507 509 510
f 507 510 508
f 509 505 511
f 509 511 510
f 510 511 512
f 510 512 508
f 511 505 513
f 511 513 512
f 512 513 514
f 512 514 508
f 513 505 515
f 513 515 514
f 514 515 516
f 514 516 508
f 515 505 517
f 515 517 516
f 516 517 518
f 516 518 508
f 517 505 519
f 517 519 518
f 518 519 520
f 518 520 508
f 519 505 521
f 519 521 520
f 520 521 522
f 520 522 508
f 521 505 523
f 521 523 522
f 522 523 524
f 522 524 508
f 523 505 525
f 523 525 524
f 524 525 526
f 524 526 508
f 525 505 527
f 525 527 526
f 526 527 528
f 526 528 508
f 527 505 529
f 527 529 528
f 528 529 530
f 528 530 508
f 529 505 531
f 529 531 530
f 530 531 532
f 530 532 508
f 531 505 533
f 531 533 532
f 532 533 534
f 532 534 508
f 533 505 535
f 533 535 534
f 534 535 536
f 534 536 508
f 535 505 537
f 535 537 536
f 536 537 538
f 536 538 508
f 537 505 539
f 537 539 538
f 538 539 540
f 538 540 508
f 539 505 541
f 539 541 540
f 540 541 542
f 540 542 508
f 541 505 543
f 541 543 542
f 542 543 544
f 542 544 508
f 543 505 545
f 543 545 544
f 544 545 546
f 544 546 508
f 545 505 506
f 545 506 546
f 546 506 507
f 546 507 508
f 548 547 551
f 548 551 549
f 549 551 552
f 549 552 550
f 551 547 553
f 551 553 552
f 552 553 554
f 552 554 550
f 553 547 555
f 553 555 554
f 554 555 556
f 554 556 550
f 555 547 557
f 555 557 556
f 556 557 558
f 556 558 550
f 557 547 559
f 557 559 558
f 558 559 560
f 558 560 550
f 559 547 561
f 559 561 560
f 560 561 562
f 560 562 550
f 561 547 563
f 561 563 562
f 562 563 564
f 562 564 550
f 563 547 565
f 563 565 564
f 564 565 566
f 564 566 550
f 565 547 567
f 565 567 566
f 566 567 568
f 566 568 550
f 567 547 569
f 567 569 568
f 568 569 570
f 568 570 550
f 569 547 571
f 569 571 570
f 570 571 572
f 570 572 550
f 571 547 573
f 571 573 572
f 572 573 574
f 572 574 550
f 573 547 575
f 573 575 574
f 574 575 576
f 574 576 550
f 575 547 577
f 575 577 576
f 576 577 578
f 576 578 550
f 577 547 579
f 577 579 578
f 578 579 580
f 578 580 550
f 579 547 581
f 579 581 580
f 580 581 582
f 580 582 550
f 581 547 583
f 581 583 582
f 582 583 584
f 582 584 550
f 583 547 585
f 583 585 584
f 584 585 586
f 584 586 550
f 585 547 587
f 585 587 586
f 586 587 588
f 586 588 550
f 587 547 548
f 587 548 588
f 588 548 549
f 588 549 550
f 590 589 593
f 590 593 591
f 591 593 594
f 591 594 592
f 593 589 595
f 593 595 594
f 594 595 596
f 594 596 592
f 595 589 597
f 595 597 596
f 596 597 598
f 596 598 592
f 597 589 599
f 597 599 598
f 598 599 600
f 598 600 592
f 599 589 601
f 599 601 600
f 600 601 602
f 600 602 592
f 601 589 603
f 601 603 602
f 602 603 604
f 602 604 592
f 603 589 605
f 603 605 604
f 604 605 606
f 604 606 592
f 605 589 607
f 605 607 606
f 606 607 608
f 606 608 592
f 607 589 609
f 607 609 608
f 608 609 610
f 608 610 592
f 609 589 611
f 609 611 610
f 610 611 612
f 610 612 592
f 611 589 613
f 611 613 612
f 612 613 614
f 612 614 592
f 613 589 615
f 613 615 614
f 614 615 616
f 614 616 592
f 615 589 617
f 615 617 616
f 616 617 618
f 616 618 592
f 617 589 619
f 617 619 618
f 618 619 620
f 618 620 592
f 619 589 621
f 619 621 620
f 620 621 622
f 620 622 592
f 621 589 623
f 621 623 622
f 622 623 624
f 622 624 592
f 623 589 625
f 623 625 624
f 624 625 626
f 624 626 592
f 625 589 627
f 625 627 626
f 626 627 628
f 626 628 592
f 627 589 629
f 627 629 628
f 628 629 630
f 628 630 592
f 629 589 590
f 629 590 630
f 630 590 591
f 630 591 592
f 632 631 635
f 632 635 633
f 633 635 636
f 633 636 634
f 635 631 637
f 635 637 636
f 636 637 638
f 636 638 634
f 637 631 639
f 637 639 638
f 638 639 640
f 638 640 634
f 639 631 641
f 639 641 640
f 640 641 642
f 640 642 634
f 641 631 643
f 641 643 642
f 642 643 644
f 642 644 634
f 643 631 645
f 643 645 644
f 644 645 646
f 644 646 634
f 645 631 647
f 645 647 646
f 646 647 648
f 646 648 634
f 647 631 649
f 647 649 648
f 648 649 650
f 648 650 634
f 649 631 651
f 649 651 650
f 650 651 652
f 650 652 634
f 651 631 653
f 651 653 652
f 652 653 654
f 652 654 634
f 653 631 655
f 653 655 654
f 654 655 656
f 654 656 634
f 655 631 657
f 655 657 656
f 656 657 658
f 656 658 634
f 657 631 659
f 657 659 658
f 658 659 660
f 658 660 634
f 659 631 661
f 659 661 660
f 660 661 662
f 660 662 634
f 661 631 663
f 661 663 662
f 662 663 664
f 662 664 634
f 663 631 665
f 663 665 664
f 664 665 666
f 664 666 634
f 665 631 667
f 665 667 666
f 666 667 668
f 666 668 634
f 667 631 669
f 667 669 668
f 668 669 670
f 668 670 634
f 669 631 671
f 669 671 670
f 670 671 672
f 670 672 634
f 671 631 632
f 671 632 672
f 672 632 633
f 672 633 634
f 674 673 677
f 674 677 675
f 675 677 678
f 675 678 676
f 677 673 679
f 677 679 678
f 678 679 680
f 678 680 676
f 679 673 681
f 679 681 680
f 680 681 682
f 680 682 676
f 681 673 683
f 681 683 682
f 682 683 684
f 682 684 676
f 683 673 685
f 683 685 684
f 684 685 686
f 684 686 676
f 685 673 687
f 685 687 686
f 686 687 688
f 686 688 676
f 687 673 689
f 687 689 688
f 688 689 690
f 688 690 676
f 689 673 691
f 689 691 690
f 690 691 692
f 690 692 676
f 691 673 693
f 691 693 692
f 692 693 694
f 692 694 676
f 693 673 695
f 693 695 694
f 694 695 696
f 694 696 676
f 695 673 697
f 695 697 696
f 696 697 698
f 696 698 676
f 697 673 699
f 697 699 698
f 698 699 700
f 698 700 676
f 699 673 701
f 699 701 700
f 700 701 702
f 700 702 676
f 701 673 703
f 701 703 702
f 702 703 704
f 702 704 676
f 703 673 705
f 703 705 704
f 704 705 706
f 704 706 676
f 705 673 707
f 705 707 706
f 706 707 708
f 706 708 676
f 707 673 709
f 707 709 708
f 708 709 710
f 708 710 676
f 709 673 711
f 709 711 710
f 710 711 712
f 710 712 676
f 711 673 713
f 711 713 712
f 712 713 714
f 712 714 676
f 713 673 674
f 713 674 714
f 714 674 675
f 714 675 676
f 716 715 719
f 716 719 717
f 717 719 720
f 717 720 718
f 719 715 721
f 719 721 720
f 720 721 722
f 720 722 718
f 721 715 723
f 721 723 722
f 722 723 724
f 722 724 718
f 723 715 725
f 723 725 724
f 724 725 726
f 724 726 718
f 725 715 727
f 725 727 726
f 726 727 728
f 726 728 718
f 727 715 729
f 727 729 728
f 728 729 730
f 728 730 718
f 729 715 731
f 729 731 730
f 730 731 732
f 730 732 718
f 731 715 733
f 731 733 732
f 732 733 734
f 732 734 718
f 733 715 735
f 733 735 734
f 734 735 736
f 734 736 718
f 735 715 737
f 735 737 736
f 736 737 738
f 736 738 718
f 737 715 739
f 737 739 738
f 738 739 740
f 738 740 718
f 739 715 741
f 739 741 740
f 740 741 742
f 740 742 718
f 741 715 743
f 741 743 742
f 742 743 744
f 742 744 718
f 743 715 745
f 743 745 744
f 744 745 746
f 744 746 718
f 745 715 747
f 745 747 746
f 746 747 748
f 746 748 718
f 747 715 749
f 747 749 748
f 748 749 750
f 748 750 718
f 749 715 751
f 749 751 750
f 750 751 752
f 750 752 718
f 751 715 753
f 751 753 752
f 752 753 754
f 752 754 718
f 753 715 755
f 753 755 754
f 754 755 756
f 754 756 718
f 755 715 716
f 755 716 756
f 756 716 717
f 756 717 718
f 758 757 761
f 758 761 759
f 759 761 762
f 759 762 760
f 761 757 763
f 761 763 762
f 762 763 764
f 762 764 760
f 763 757 765
f 763 765 764
f 764 765 766
f 764 766 760
f 765 757 767
f 765 767 766
f 766 767 768
f 766 768 760
f 767 757 769
f 767 769 768
f 768 769 770
f 768 770 760
f 769 757 771
f 769 771 770
f 770 771 772
f 770 772 760
f 771 757 773
f 771 773 772
f 772 773 774
f 772 774 760
f 773 757 775
f 773 775 774
f 774 775 776
f 774 776 760
f 775 757 777
f 775 777 776
f 776 777 778
f 776 778 760
f 777 757 779
f 777 779 778
f 778 779 780
f 778 780 760
f 779 757 781
f 779 781 780
f 780 781 782
f 780 782 760
f 781 757 783
f 781 783 782
f 782 783 784
f 782 784 760
f 783 757 785
f 783 785 784
f 784 785 786
f 784 786 760
f 785 757 787
f 785 787 786
f 786 787 788
f 786 788 760
f 787 757 789
f 787 789 788
f 788 789 790
f 788 790 760
f 789 757 791
f 789 791 790
f 790 791 792
f 790 792 760
f 791 757 793
f 791 793 792
f 792 793 794
f 792 794 760
f 793 757 795
f 793 795 794
f 794 795 796
f 794 796 760
f 795 757 797
f 795 797 796
f 796 797 798
f 796 798 760
f 797 757 758
f 797 758 798
f 798 758 759
f 798 759 760
f 800 802 799
f 803 800 799
f 799 802 801
f 801 803 799
f 800 806 802
f 804 800 803
f 804 806 800
f 802 806 801
f 805 803 801
f 801 806 805
f 805 804 803
f 806 804 805
f 808 807 811
f 808 811 809
f 809 811 812
f 809 812 810
f 811 807 813
f 811 813 812
f 812 813 814
f 812 814 810
f 813 807 815
f 813 815 814
f 814 815 816
f 814 816 810
f 815 807 817
f 815 817 816
f 816 817 818
f 816 818 810
f 817 807 819
f 817 819 818
f 818 819 820
f 818 820 810
f 819 807 821
f 819 821 820
f 820 821 822
f 820 822 810
f 821 807 823
f 821 823 822
f 822 823 824
f 822 824 810
f 823 807 825
f 823 825 824
f 824 825 826
f 824 826 810
f 825 807 827
f 825 827 826
f 826 827 828
f 826 828 810
f 827 807 829
f 827 829 828
f 828 829 830
f 828 830 810
f 829 807 831
f 829 831 830
f 830 831 832
f 830 832 810
f 831 807 808
f 831 808 832
f 832 808 809
f 832 809 810
f 834 833 837
f 834 837 835
f 835 837 838
f 835 838 836
f 837 833 839
f 837 839 838
f 838 839 840
f 838 840 836
f 839 833 841
f 839 841 840
f 840 841 842
f 840 842 836
f 841 833 843
f 841 843 842
f 842 843 844
f 842 844 836
f 843 833 845
f 843 845 844
f 844 845 846
f 844 846 836
f 845 833 847
f 845 847 846
f 846 847 848
f 846 848 836
f 847 833 849
f 847 849 848
f 848 849 850
f 848 850 836
f 849 833 851
f 849 851 850
f 850 851 852
f 850 852 836
f 851 833 853
f 851 853 852
f 852 853 854
f 852 854 836
f 853 833 855
f 853 855 854
f 854 855 856
f 854 856 836
f 855 833 857
f 855 857 856
f 856 857 858
f 856 858 836
f 857 833 834
f 857 834 858
f 858 834 835
f 858 835 836
f 860 859 863
f 860 863 861
f 861 863 864
f 861 864 862
f 863 859 865
f 863 865 864
f 864 865 866
f 864 866 862
f 865 859 867
f 865 867 866
f 866 867 868
f 866 868 862
f 867 859 869
f 867 869 868
f 868 869 870
f 868 870 862
f 869 859 871
f 869 871 870
f 870 871 872
f 870 872 862
f 871 859 873
f 871 873 872
f 872 873 874
f 872 874 862
f 873 859 875
f 873 875 874
f 874 875 876
f 874 876 862
f 875 859 877
f 875 877 876
f 876 877 878
f 876 878 862
f 877 859 879
f 877 879 878
f 878 879 880
f 878 880 862
f 879 859 881
f 879 881 880
f 880 881 882
f 880 882 862
f 881 859 883
f 881 883 882
f 882 883 884
f 882 884 862
f 883 859 860
f 883 860 884
f 884 860 861
f 884 861 862
f 886 885 889
f 886 889 887
f 887 889 890
f 887 890 888
f 889 885 891
f 889 891 890
f 890 891 892
f 890 892 888
f 891 885 893
f 891 893 892
f 892 893 894
f 892 894 888
f 893 885 895
f 893 895 894
f 894 895 896
f 894 896 888
f 895 885 897
f 895 897 896
f 896 897 898
f 896 898 888
f 897 885 899
f 897 899 898
f 898 899 900
f 898 900 888
f 899 885 901
f 899 901 900
f 900 901 902
f 900 902 888
f 901 885 903
f 901 903 902
f 902 903 904
f 902 904 888
f 903 885 905
f 903 905 904
f 904 905 906
f 904 906 888
f 905 885 907
f 905 907 906
f 906 907 908
f 906 908 888
f 907 885 909
f 907 909 908
f 908 909 910
f 908 910 888
f 909 885 886
f 909 886 910
f 910 886 887
f 910 887 888
f 912 914 911
f 915 912 911
f 911 914 913
f 913 915 911
f 912 918 914
f 916 912 915
f 916 918 912
f 914 918 913
f 917 915 913
f 913 918 917
f 917 916 915
f 918 916 917
f 920 919 923
f 920 923 921
f 921 923 924
f 921 924 922
f 923 919 925
f 923 925 924
f 924 925 926
f 924 926 922
f 925 919 927
f 925 927 926
f 926 927 928
f 926 928 922
f 927 919 929
f 927 929 928
f 928 929 930
f 928 930 922
f 929 919 931
f 929 931 930
f 930 931 932
f 930 932 922
f 931 919 933
f 931 933 932
f 932 933 934
f 932 934 922
f 933 919 935
f 933 935 934
f 934 935 936
f 934 936 922
f 935 919 937
f 935 937 936
f 936 937 938
f 936 938 922
f 937 919 939
f 937 939 938
f 938 939 940
f 938 940 922
f 939 919 941
f 939 941 940
f 940 941 942
f 940 942 922
f 941 919 943
f 941 943 942
f 942 943 944
f 942 944 922
f 943 919 920
f 943 920 944
f 944 920 921
f 944 921 922
f 946 945 949
f 946 949 947
f 947 949 950
f 947 950 948
f 949 945 951
f 949 951 950
f 950 951 952
f 950 952 948
f 951 945 953
f 951 953 952
f 952 953 954
f 952 954 948
f 953 945 955
f 953 955 954
f 954 955 956
f 954 956 948
f 955 945 957
f 955 957 956
f 956 957 958
f 956 958 948
f 957 945 959
f 957 959 958
f 958 959 960
f 958 960 948
f 959 945 961
f 959 961 960
f 960 961 962
f 960 962 948
f 961 945 963
f 961 963 962
f 962 963 964
f 962 964 948
f 963 945 965
f 963 965 964
f 964 965 966
f 964 966 948
f 965 945 967
f 965 967 966
f 966 967 968
f 966 968 948
f 967 945 969
f 967 969 968
f 968 969 970
f 968 970 948
f 969 945 946
f 969 946 970
f 970 946 947
f 970 947 948
f 972 971 975
f 972 975 973
f 973 975 976
f 973 976 974
f 975 971 977
f 975 977 976
f 976 977 978
f 976 978 974
f 977 971 979
f 977 979 978
f 978 979 980
f 978 980 974
f 979 971 981
f 979 981 980
f 980 981 982
f 980 982 974
f 981 971 983
f 981 983 982
f 982 983 984
f 982 984 974
f 983 971 985
f 983 985 984
f 984 985 986
f 984 986 974
f 985 971 987
f 985 987 986
f 986 987 988
f 986 988 974
f 987 971 989
f 987 989 988
f 988 989 990
f 988 990 974
f 989 971 991
f 989 991 990
f 990 991 992
f 990 992 974
f 991 971 993
f 991 993 992
f 992 993 994
f 992 994 974
f 993 971 995
f 993 995 994
f 994 995 996
f 994 996 974
f 995 971 972
f 995 972 996
f 996 972 973
f 996 973 974
f 998 997 1001
f 998 1001 999
f 999 1001 1002
f 999 1002 1000
f 1001 997 1003
f 1001 1003 1002
f 1002 1003 1004
f 1002 1004 1000
f 1003 997 1005
f 1003 1005 1004
f 1004 1005 1006
f 1004 1006 1000
f 1005 997 1007
f 1005 1007 1006
f 1006 1007 1008
f 1006 1008 1000
f 1007 997 1009
f 1007 1009 1008
f 1008 1009 1010
f 1008 1010 1000
f 1009 997 1011
f 1009 1011 1010
f 1010 1011 1012
f 1010 1012 1000
f 1011 997 1013
f 1011 1013 1012
f 1012 1013 1014
f 1012 1014 1000
f 1013 997 1015
f 1013 1015 1014
f 1014 1015 1016
f 1014 1016 1000
f 1015 997 1017
f 1015 1017 1016
f 1016 1017 1018
f 1016 1018 1000
f 1017 997 1019
f 1017 1019 1018
f 1018 1019 1020
f 1018 1020 1000
f 1019 997 1021
f 1019 1021 1020
f 1020 1021 1022
f 1020 1022 1000
f 1021 997 998
f 1021 998 1022
f 1022 998 999
f 1022 999 1000

